<?xml version="1.0" standalone="no"?>
<!DOCTYPE svg PUBLIC "-//W3C//DTD SVG 20010904//EN"
 "http://www.w3.org/TR/2001/REC-SVG-20010904/DTD/svg10.dtd">
<svg version="1.0" xmlns="http://www.w3.org/2000/svg"
 width="512.000000pt" height="512.000000pt" viewBox="0 0 512.000000 512.000000"
 preserveAspectRatio="xMidYMid meet">
<metadata>
Created by potrace 1.16, written by Peter Selinger 2001-2019
</metadata>
<g transform="translate(0.000000,512.000000) scale(0.100000,-0.100000)"
fill="#000000" stroke="none">
<path d="M2321 5101 c-11 -11 -22 -41 -26 -72 -4 -30 -22 -88 -40 -129 -48
-108 -58 -158 -53 -259 5 -75 11 -100 48 -181 58 -131 58 -189 0 -319 -33 -72
-43 -109 -47 -167 -5 -68 -4 -77 17 -99 28 -30 78 -33 109 -7 16 12 24 35 30
77 5 33 26 98 46 144 68 155 67 266 -5 435 -39 92 -42 104 -37 165 3 48 15 87
41 141 36 76 62 201 49 237 -19 54 -93 73 -132 34z"/>
<path d="M1901 4821 c-11 -11 -23 -37 -27 -58 -4 -21 -26 -75 -50 -121 -41
-77 -44 -88 -44 -160 0 -82 15 -126 64 -199 40 -58 36 -108 -16 -196 -36 -60
-43 -81 -46 -138 -4 -58 -1 -70 17 -88 27 -27 84 -28 110 -2 11 11 23 37 27
58 4 21 27 76 51 123 44 83 45 85 41 170 -3 80 -6 91 -45 159 -57 97 -57 129
-2 222 35 59 43 81 47 138 4 60 2 71 -17 90 -27 27 -84 28 -110 2z"/>
<path d="M2743 4818 c-11 -13 -23 -41 -26 -62 -4 -22 -22 -65 -41 -95 -76
-124 -74 -243 6 -366 47 -72 44 -119 -11 -212 -54 -91 -66 -172 -31 -215 17
-22 30 -28 59 -28 47 0 71 24 81 82 5 24 27 74 49 112 67 115 65 225 -6 341
-51 82 -51 129 -1 210 60 100 74 182 37 229 -27 35 -86 36 -116 4z"/>
<path d="M2051 3720 c-201 -10 -413 -29 -463 -41 -60 -15 -77 -73 -36 -124 21
-27 23 -28 102 -22 45 4 133 12 196 19 156 16 764 16 955 -1 569 -49 998 -166
1151 -315 60 -58 66 -80 33 -132 -20 -32 -94 -94 -112 -94 -6 0 -62 20 -126
44 -64 24 -150 53 -191 65 -213 59 -567 111 -887 131 -662 40 -1404 -46 -1801
-210 l-97 -40 -38 27 c-58 40 -87 83 -87 128 0 32 7 45 45 82 84 80 296 168
538 223 54 13 108 31 121 41 32 25 38 74 14 105 -27 34 -77 32 -241 -10 -331
-85 -546 -205 -613 -342 l-27 -55 6 -302 c6 -301 16 -415 56 -640 71 -398 222
-773 428 -1068 29 -42 53 -79 53 -81 0 -3 -35 -11 -77 -18 -107 -17 -359 -82
-468 -120 -194 -69 -336 -162 -393 -258 -38 -66 -39 -157 0 -223 132 -224 672
-389 1518 -465 242 -21 985 -30 1240 -15 692 43 1207 142 1519 294 82 40 118
64 171 116 94 94 114 175 67 276 -76 161 -362 294 -842 390 -71 15 -131 28
-133 30 -2 2 13 28 35 58 l38 55 75 6 c432 39 766 189 982 443 184 217 310
540 295 760 -14 201 -104 360 -265 467 -88 58 -176 88 -281 94 -106 6 -176 -9
-267 -58 l-72 -38 -4 152 c-5 164 -13 197 -68 266 -75 95 -291 202 -540 268
-382 102 -1007 157 -1509 132z m1955 -950 c-16 -328 -64 -595 -158 -879 -22
-68 -40 -134 -40 -148 0 -36 39 -73 78 -73 45 0 66 30 108 158 72 218 114 406
142 627 21 171 35 208 108 281 81 81 149 108 256 102 253 -15 442 -270 390
-530 -33 -167 -118 -359 -218 -488 -168 -218 -467 -371 -809 -415 l-52 -7 16
40 c20 52 3 92 -45 106 -52 14 -74 -3 -131 -103 -116 -201 -290 -410 -438
-524 -125 -95 -273 -171 -410 -209 -72 -20 -107 -22 -428 -26 -418 -5 -467 1
-668 78 -69 27 -81 29 -105 18 -14 -7 -33 -25 -42 -40 -32 -58 25 -105 186
-157 161 -52 286 -64 644 -58 175 3 339 11 370 17 236 49 460 168 647 345 l92
86 93 -16 c426 -72 738 -180 846 -292 45 -48 43 -82 -9 -132 -154 -148 -671
-285 -1284 -341 -369 -33 -987 -43 -1330 -20 -807 53 -1417 200 -1568 379 -37
44 -34 64 14 116 97 105 456 231 816 286 l81 12 79 -72 c43 -40 90 -79 105
-87 52 -27 108 8 108 68 0 22 -27 55 -138 165 -105 105 -157 167 -218 258
-238 357 -374 767 -429 1299 -15 150 -20 306 -9 306 3 0 19 -9 35 -20 78 -56
307 -139 514 -186 629 -142 1592 -144 2225 -3 214 48 403 114 510 178 36 21
67 40 69 40 2 1 1 -62 -3 -139z"/>
</g>
</svg>
